<?xml version="1.0" encoding="UTF-8" standalone="no"?>
<svg
   xmlns:dc="http://purl.org/dc/elements/1.1/"
   xmlns:cc="http://creativecommons.org/ns#"
   xmlns:rdf="http://www.w3.org/1999/02/22-rdf-syntax-ns#"
   xmlns:svg="http://www.w3.org/2000/svg"
   xmlns="http://www.w3.org/2000/svg"
   xmlns:sodipodi="http://sodipodi.sourceforge.net/DTD/sodipodi-0.dtd"
   xmlns:inkscape="http://www.inkscape.org/namespaces/inkscape"
   sodipodi:docname="Layout.svg"
   inkscape:version="1.0 (4035a4fb49, 2020-05-01)"
   id="svg8"
   version="1.1"
   viewBox="0 0 297 210"
   height="210mm"
   width="297mm">
  <defs
     id="defs2" />
  <sodipodi:namedview
     inkscape:window-maximized="0"
     inkscape:window-y="0"
     inkscape:window-x="190"
     inkscape:window-height="1020"
     inkscape:window-width="1624"
     showgrid="false"
     inkscape:document-rotation="0"
     inkscape:current-layer="layer1"
     inkscape:document-units="mm"
     inkscape:cy="331.71754"
     inkscape:cx="449.52966"
     inkscape:zoom="0.7"
     inkscape:pageshadow="2"
     inkscape:pageopacity="0.0"
     borderopacity="1.0"
     bordercolor="#666666"
     pagecolor="#ffffff"
     id="base" />
  <metadata
     id="metadata5">
    <rdf:RDF>
      <cc:Work
         rdf:about="">
        <dc:format>image/svg+xml</dc:format>
        <dc:type
           rdf:resource="http://purl.org/dc/dcmitype/StillImage" />
        <dc:title></dc:title>
      </cc:Work>
    </rdf:RDF>
  </metadata>
  <g
     id="layer1"
     inkscape:groupmode="layer"
     inkscape:label="Layer 1">
    <path
       sodipodi:nodetypes="ccccccccc"
       id="box"
       style="fill:#e3dbdb;stroke-width:0.0166138"
       d="m 386.67324,-82.101889 4.74131,-0.1579 c 0.31324,0.002 1.52052,1.73562 1.5252,2.70476 l 0.0344,7.120293 c 0.005,0.96912 -0.24375,1.74748 -0.557,1.74518 l -6.992,-0.0509 c -0.31325,-0.002 -0.56919,-0.78431 -0.57387,-1.75343 l -0.0344,-7.120293 c -0.004,-0.79641 1.00145,-2.83874 1.85636,-2.48769 z" />
    <rect
       transform="matrix(0.99999976,6.9379307e-4,7.1749708e-4,0.99999974,0,0)"
       ry="0"
       y="-84.27298"
       x="385.50949"
       height="1.9106028"
       width="6.7483587"
       id="lid"
       style="fill:#483737;stroke-width:0.0216778" />
    <path
       id="Sticker"
       style="fill:#ffffff;stroke-width:0.0251408"
       d="m 385.521,-78.664099 6.36832,0.004 10e-4,1.547493 -6.3683,-0.004 z" />
    <text
       transform="scale(0.99943571,1.0005646)"
       id="randomtext"
       y="-77.516464"
       x="386.36325"
       style="font-style:normal;font-weight:normal;font-size:0.797891px;line-height:1.25;font-family:sans-serif;fill:#000000;fill-opacity:1;stroke:none;stroke-width:0.149605"
       xml:space="preserve"><tspan
         style="font-size:0.797891px;stroke-width:0.149605"
         y="-77.516464"
         x="386.36325"
         id="tspan900"
         sodipodi:role="line">CuSO4·5H2O</tspan></text>
    <path
       id="avatarblood"
       d="m 388.37021,-70.724876 c -1.58883,-0.0108 -2.92087,-0.0247 -2.96008,-0.0311 -0.15009,-0.0241 -0.28256,-0.21693 -0.39011,-0.56778 -0.12472,-0.40688 -0.13269,-0.50264 -0.1534,-1.84465 -0.0106,-0.68913 -0.0202,-1.53706 -0.0213,-1.88427 l -0.002,-0.63131 0.101,-0.0592 c 0.0555,-0.0326 0.11982,-0.08 0.14281,-0.1054 0.023,-0.0254 0.06,-0.0462 0.0823,-0.0462 0.0222,0 0.13535,0.0888 0.2513,0.19723 0.23819,0.22284 0.2997,0.24191 0.47052,0.1459 l 0.0913,-0.0513 0.26257,0.0538 c 0.29706,0.0609 0.36512,0.0546 0.49121,-0.0456 0.0471,-0.0374 0.10433,-0.068 0.12721,-0.068 0.0229,0 0.12554,0.0276 0.2281,0.0614 0.18121,0.0597 0.18933,0.0604 0.28632,0.0233 0.0725,-0.0277 0.14038,-0.0858 0.24807,-0.21227 0.0815,-0.0958 0.15725,-0.17414 0.16826,-0.17414 0.011,0 0.10195,0.0412 0.20209,0.0915 0.34149,0.1717 0.68133,0.25793 0.82703,0.20984 0.0422,-0.0139 0.1042,-0.0613 0.13776,-0.10534 0.07,-0.0917 0.10406,-0.0988 0.1628,-0.0339 0.0229,0.0253 0.38913,0.12629 0.47346,0.16761 0.17594,0.0862 -0.0824,0.0408 0.62898,-1.9e-4 0.3043,-0.0175 0.47992,-0.039 0.60328,-0.0738 0.32034,-0.0904 1.01742,-0.45728 1.39006,-0.73159 l 0.14304,-0.10531 0.27835,0.16644 c 0.15309,0.0915 0.28239,0.17299 0.28735,0.181 0.005,0.008 0.0165,0.8966 0.0256,1.97463 0.0179,2.11071 0.0109,2.31645 -0.0951,2.79537 -0.0659,0.29795 -0.18386,0.55562 -0.30162,0.65901 l -0.0819,0.0719 -0.60828,-0.004 c -0.33455,-0.002 -1.90823,-0.0128 -3.49706,-0.0236 z"
       style="opacity:0.958466;fill:#00ffff;stroke:#00d2f5;stroke-width:0.0877078;stroke-linejoin:round;stroke-opacity:1;paint-order:markers stroke fill"
       sodipodi:nodetypes="ssssccssssscssssssssssssssscsscsscsss" />
    <rect
       y="86.730118"
       x="138.42726"
       height="32.020569"
       width="147.82291"
       id="rect901"
       style="opacity:0.817891;fill:#b3b3b3;stroke-width:1.97323;stroke-linejoin:round;paint-order:markers stroke fill" />
    <rect
       y="84.479927"
       x="126.19339"
       height="2.7502406"
       width="170.71777"
       id="tabletop2"
       style="opacity:0.817891;fill:#000000;stroke-width:1.97323;stroke-linejoin:round;paint-order:markers stroke fill" />
    <rect
       y="90.680145"
       x="140.91791"
       height="22.838312"
       width="19.758093"
       id="rect905"
       style="opacity:0.817891;fill:#333333;stroke-width:1.4929;stroke-linejoin:round;paint-order:markers stroke fill" />
    <rect
       style="opacity:0.817891;fill:#333333;stroke-width:1.4929;stroke-linejoin:round;paint-order:markers stroke fill"
       id="rect907"
       width="19.758093"
       height="22.838312"
       x="165.50577"
       y="90.498894" />
    <ellipse
       style="opacity:0.916;fill:#000000;stroke-width:0.394948"
       id="path1584-4"
       cx="154.96812"
       cy="102.64307"
       rx="2.4148781"
       ry="1.8125644" />
    <ellipse
       style="opacity:0.916;fill:#000000;stroke-width:0.394948"
       id="path1584-9"
       cx="169.0183"
       cy="102.64307"
       rx="2.4148781"
       ry="1.8125644" />
    <rect
       y="0.98358506"
       x="0.35369748"
       height="21.037502"
       width="181.51622"
       id="shelf"
       style="opacity:0.817891;fill:#999999;stroke:#000000;stroke-width:1.52245;stroke-linejoin:round;stroke-opacity:1;paint-order:markers stroke fill" />
    <rect
       y="84.672096"
       x="2.3142166"
       height="1.7873007"
       width="120.81674"
       id="rect982"
       style="opacity:0.817891;fill:#1a1a1a;stroke:#000000;stroke-width:1.027;stroke-linejoin:round;stroke-opacity:1;paint-order:markers stroke fill" />
    <path
       sodipodi:nodetypes="ccccccccccc"
       d="m 6.0474714,86.464637 v 8.407239 l 0.066817,28.761214 5.5879126,0.4009 V 91.464189 l 103.789559,0.187019 0.1451,32.048702 4.7828,-0.13364 -0.60136,-28.694397 v -8.407239 z"
       style="opacity:0.817891;fill:#b3b3b3;stroke:#000000;stroke-width:1.00012;stroke-linejoin:round;stroke-opacity:1;paint-order:markers stroke fill"
       id="rect984" />
    <rect
       style="opacity:0.817891;fill:#333333;stroke-width:1.4929;stroke-linejoin:round;paint-order:markers stroke fill"
       id="rect905-1"
       width="19.758093"
       height="22.838312"
       x="190.41339"
       y="90.379486" />
    <rect
       y="90.198235"
       x="215.00125"
       height="22.838312"
       width="19.758093"
       id="rect907-9"
       style="opacity:0.817891;fill:#333333;stroke-width:1.4929;stroke-linejoin:round;paint-order:markers stroke fill" />
    <ellipse
       ry="1.8125644"
       rx="2.4148781"
       cy="102.34241"
       cx="204.46361"
       id="path1584-4-7"
       style="opacity:0.916;fill:#000000;stroke-width:0.394949" />
    <ellipse
       ry="1.8125644"
       rx="2.4148781"
       cy="102.34241"
       cx="218.51378"
       id="path1584-9-1"
       style="opacity:0.916;fill:#000000;stroke-width:0.394949" />
    <rect
       style="opacity:0.817891;fill:#333333;stroke-width:1.4929;stroke-linejoin:round;paint-order:markers stroke fill"
       id="rect905-5"
       width="19.758093"
       height="22.838312"
       x="239.23154"
       y="89.946426" />
    <rect
       y="89.765175"
       x="263.8194"
       height="22.838312"
       width="19.758093"
       id="rect907-0"
       style="opacity:0.817891;fill:#333333;stroke-width:1.4929;stroke-linejoin:round;paint-order:markers stroke fill" />
    <ellipse
       ry="1.8125644"
       rx="2.4148781"
       cy="101.90935"
       cx="253.28174"
       id="path1584-4-1"
       style="opacity:0.916;fill:#000000;stroke-width:0.394949" />
    <ellipse
       ry="1.8125644"
       rx="2.4148781"
       cy="101.90935"
       cx="267.33191"
       id="path1584-9-4"
       style="opacity:0.916;fill:#000000;stroke-width:0.394949" />
  </g>
</svg>
