<?xml version="1.0" encoding="UTF-8" standalone="no"?>
<svg
   xmlns:dc="http://purl.org/dc/elements/1.1/"
   xmlns:cc="http://creativecommons.org/ns#"
   xmlns:rdf="http://www.w3.org/1999/02/22-rdf-syntax-ns#"
   xmlns:svg="http://www.w3.org/2000/svg"
   xmlns="http://www.w3.org/2000/svg"
   xmlns:sodipodi="http://sodipodi.sourceforge.net/DTD/sodipodi-0.dtd"
   xmlns:inkscape="http://www.inkscape.org/namespaces/inkscape"
   width="297mm"
   height="210mm"
   viewBox="0 0 297 210"
   version="1.1"
   id="svg8"
   inkscape:version="1.0 (4035a4fb49, 2020-05-01)"
   sodipodi:docname="Layout.svg">
  <defs
     id="defs2" />
  <sodipodi:namedview
     id="base"
     pagecolor="#ffffff"
     bordercolor="#666666"
     borderopacity="1.0"
     inkscape:pageopacity="0.0"
     inkscape:pageshadow="2"
     inkscape:zoom="3.959798"
     inkscape:cx="471.31469"
     inkscape:cy="77.08323"
     inkscape:document-units="mm"
     inkscape:current-layer="layer1"
     inkscape:document-rotation="0"
     showgrid="false"
     inkscape:window-width="1624"
     inkscape:window-height="1020"
     inkscape:window-x="190"
     inkscape:window-y="0"
     inkscape:window-maximized="0" />
  <metadata
     id="metadata5">
    <rdf:RDF>
      <cc:Work
         rdf:about="">
        <dc:format>image/svg+xml</dc:format>
        <dc:type
           rdf:resource="http://purl.org/dc/dcmitype/StillImage" />
        <dc:title />
      </cc:Work>
    </rdf:RDF>
  </metadata>
  <g
     inkscape:label="Layer 1"
     inkscape:groupmode="layer"
     id="layer1">
    <path
       d="m 386.67324,-82.101889 4.74131,-0.1579 c 0.31324,0.002 1.52052,1.73562 1.5252,2.70476 l 0.0344,7.120293 c 0.005,0.96912 -0.24375,1.74748 -0.557,1.74518 l -6.992,-0.0509 c -0.31325,-0.002 -0.56919,-0.78431 -0.57387,-1.75343 l -0.0344,-7.120293 c -0.004,-0.79641 1.00145,-2.83874 1.85636,-2.48769 z"
       style="fill:#e3dbdb;stroke-width:0.0166138"
       id="box"
       sodipodi:nodetypes="ccccccccc" />
    <rect
       style="fill:#483737;stroke-width:0.0216778"
       id="lid"
       width="6.7483587"
       height="1.9106028"
       x="385.50949"
       y="-84.27298"
       ry="0"
       transform="matrix(0.99999976,6.9379307e-4,7.1749708e-4,0.99999974,0,0)" />
    <path
       d="m 385.521,-78.664099 6.36832,0.004 10e-4,1.547493 -6.3683,-0.004 z"
       style="fill:#ffffff;stroke-width:0.0251408"
       id="Sticker" />
    <text
       xml:space="preserve"
       style="font-style:normal;font-weight:normal;font-size:0.797891px;line-height:1.25;font-family:sans-serif;fill:#000000;fill-opacity:1;stroke:none;stroke-width:0.149605"
       x="386.36325"
       y="-77.516464"
       id="randomtext"
       transform="scale(0.99943571,1.0005646)"><tspan
         sodipodi:role="line"
         id="tspan900"
         x="386.36325"
         y="-77.516464"
         style="font-size:0.797891px;stroke-width:0.149605">CuSO4·5H2O</tspan></text>
    <path
       sodipodi:nodetypes="ssssccssssscssssssssssssssscsscsscsss"
       style="opacity:0.958466;fill:#00ffff;stroke:#00d2f5;stroke-width:0.0877078;stroke-linejoin:round;stroke-opacity:1;paint-order:markers stroke fill"
       d="m 388.37021,-70.724876 c -1.58883,-0.0108 -2.92087,-0.0247 -2.96008,-0.0311 -0.15009,-0.0241 -0.28256,-0.21693 -0.39011,-0.56778 -0.12472,-0.40688 -0.13269,-0.50264 -0.1534,-1.84465 -0.0106,-0.68913 -0.0202,-1.53706 -0.0213,-1.88427 l -0.002,-0.63131 0.101,-0.0592 c 0.0555,-0.0326 0.11982,-0.08 0.14281,-0.1054 0.023,-0.0254 0.06,-0.0462 0.0823,-0.0462 0.0222,0 0.13535,0.0888 0.2513,0.19723 0.23819,0.22284 0.2997,0.24191 0.47052,0.1459 l 0.0913,-0.0513 0.26257,0.0538 c 0.29706,0.0609 0.36512,0.0546 0.49121,-0.0456 0.0471,-0.0374 0.10433,-0.068 0.12721,-0.068 0.0229,0 0.12554,0.0276 0.2281,0.0614 0.18121,0.0597 0.18933,0.0604 0.28632,0.0233 0.0725,-0.0277 0.14038,-0.0858 0.24807,-0.21227 0.0815,-0.0958 0.15725,-0.17414 0.16826,-0.17414 0.011,0 0.10195,0.0412 0.20209,0.0915 0.34149,0.1717 0.68133,0.25793 0.82703,0.20984 0.0422,-0.0139 0.1042,-0.0613 0.13776,-0.10534 0.07,-0.0917 0.10406,-0.0988 0.1628,-0.0339 0.0229,0.0253 0.38913,0.12629 0.47346,0.16761 0.17594,0.0862 -0.0824,0.0408 0.62898,-1.9e-4 0.3043,-0.0175 0.47992,-0.039 0.60328,-0.0738 0.32034,-0.0904 1.01742,-0.45728 1.39006,-0.73159 l 0.14304,-0.10531 0.27835,0.16644 c 0.15309,0.0915 0.28239,0.17299 0.28735,0.181 0.005,0.008 0.0165,0.8966 0.0256,1.97463 0.0179,2.11071 0.0109,2.31645 -0.0951,2.79537 -0.0659,0.29795 -0.18386,0.55562 -0.30162,0.65901 l -0.0819,0.0719 -0.60828,-0.004 c -0.33455,-0.002 -1.90823,-0.0128 -3.49706,-0.0236 z"
       id="avatarblood" />
    <rect
       style="opacity:0.817891;fill:#b3b3b3;stroke-width:1.97323;stroke-linejoin:round;paint-order:markers stroke fill"
       id="rect901"
       width="147.82291"
       height="32.020569"
       x="138.42726"
       y="86.730118" />
    <rect
       style="opacity:0.817891;fill:#000000;stroke-width:1.97323;stroke-linejoin:round;paint-order:markers stroke fill"
       id="tabletop2"
       width="170.71777"
       height="2.7502406"
       x="126.19339"
       y="84.479927" />
    <rect
       style="opacity:0.817891;fill:#333333;stroke-width:1.4929;stroke-linejoin:round;paint-order:markers stroke fill"
       id="rect905"
       width="19.758093"
       height="22.838312"
       x="140.91791"
       y="90.680145" />
    <rect
       y="90.498894"
       x="165.50577"
       height="22.838312"
       width="19.758093"
       id="rect907"
       style="opacity:0.817891;fill:#333333;stroke-width:1.4929;stroke-linejoin:round;paint-order:markers stroke fill" />
    <ellipse
       ry="1.8125644"
       rx="2.4148781"
       cy="102.64307"
       cx="154.96812"
       id="path1584-4"
       style="opacity:0.916;fill:#000000;stroke-width:0.394948" />
    <ellipse
       ry="1.8125644"
       rx="2.4148781"
       cy="102.64307"
       cx="169.0183"
       id="path1584-9"
       style="opacity:0.916;fill:#000000;stroke-width:0.394948" />
    <rect
       style="opacity:0.817891;fill:#999999;stroke:#000000;stroke-width:1.52245;stroke-linejoin:round;stroke-opacity:0.85769236;paint-order:markers stroke fill"
       id="shelf"
       width="181.51622"
       height="21.037502"
       x="0.35369748"
       y="0.98358506" />
    <rect
       style="opacity:0.817891;fill:#1a1a1a;stroke:#000000;stroke-width:1.027;stroke-linejoin:round;stroke-opacity:1;paint-order:markers stroke fill"
       id="rect982"
       width="120.81674"
       height="1.7873007"
       x="2.3142166"
       y="84.672096" />
    <path
       id="rect984"
       style="opacity:0.817891;fill:#b3b3b3;stroke:#000000;stroke-width:1.00012;stroke-linejoin:round;stroke-opacity:1;paint-order:markers stroke fill"
       d="m 6.0474714,86.464637 v 8.407239 l 0.066817,28.761214 5.5879126,0.4009 V 91.464189 l 103.789559,0.187019 0.1451,32.048702 4.7828,-0.13364 -0.60136,-28.694397 v -8.407239 z"
       sodipodi:nodetypes="ccccccccccc" />
    <rect
       y="90.379486"
       x="190.41339"
       height="22.838312"
       width="19.758093"
       id="rect905-1"
       style="opacity:0.817891;fill:#333333;stroke-width:1.4929;stroke-linejoin:round;paint-order:markers stroke fill" />
    <rect
       style="opacity:0.817891;fill:#333333;stroke-width:1.4929;stroke-linejoin:round;paint-order:markers stroke fill"
       id="rect907-9"
       width="19.758093"
       height="22.838312"
       x="215.00125"
       y="90.198235" />
    <ellipse
       style="opacity:0.916;fill:#000000;stroke-width:0.394949"
       id="path1584-4-7"
       cx="204.46361"
       cy="102.34241"
       rx="2.4148781"
       ry="1.8125644" />
    <ellipse
       style="opacity:0.916;fill:#000000;stroke-width:0.394949"
       id="path1584-9-1"
       cx="218.51378"
       cy="102.34241"
       rx="2.4148781"
       ry="1.8125644" />
    <rect
       y="89.946426"
       x="239.23154"
       height="22.838312"
       width="19.758093"
       id="rect905-5"
       style="opacity:0.817891;fill:#333333;stroke-width:1.4929;stroke-linejoin:round;paint-order:markers stroke fill" />
    <rect
       style="opacity:0.817891;fill:#333333;stroke-width:1.4929;stroke-linejoin:round;paint-order:markers stroke fill"
       id="rect907-0"
       width="19.758093"
       height="22.838312"
       x="263.8194"
       y="89.765175" />
    <ellipse
       style="opacity:0.916;fill:#000000;stroke-width:0.394949"
       id="path1584-4-1"
       cx="253.28174"
       cy="101.90935"
       rx="2.4148781"
       ry="1.8125644" />
    <ellipse
       style="opacity:0.916;fill:#000000;stroke-width:0.394949"
       id="path1584-9-4"
       cx="267.33191"
       cy="101.90935"
       rx="2.4148781"
       ry="1.8125644" />
    <rect
       ry="2.5513394"
       y="7.1494594"
       x="117.66541"
       height="14.766642"
       width="11.759859"
       id="container"
       style="opacity:0.271566;fill:#0de6f4;fill-opacity:1;stroke:#000000;stroke-width:0.3;stroke-linejoin:round;stroke-miterlimit:4;stroke-dasharray:none;stroke-opacity:0.976923;paint-order:markers stroke fill" />
    <rect
       ry="0.9020344"
       y="5.3453903"
       x="117.66541"
       height="1.8040688"
       width="11.759869"
       id="rect867"
       style="opacity:0.69009585;fill:#483737;fill-opacity:1;stroke:#000000;stroke-width:0.3;stroke-linejoin:round;stroke-miterlimit:4;stroke-dasharray:none;stroke-opacity:0.976923;paint-order:markers stroke fill" />
    <path
       sodipodi:nodetypes="csssssssc"
       d="m 118.50062,13.563929 c 5.13421,-2.429187 6.30376,0.834697 9.88087,-0.661458 1.2555,-0.525122 0.90203,1.063764 0.90203,1.563491 v 5.125371 c 0,0.499726 -0.87478,2.177703 -1.3745,2.177703 h -8.41621 c -0.49973,0 -1.89422,-1.677977 -1.89422,-2.177703 v -5.125371 c 0,-0.499727 0.0254,-1.435618 0.90203,-0.902033 z"
       style="opacity:1;fill:#333333;fill-opacity:1;stroke:#000000;stroke-width:0.3;stroke-linejoin:round;stroke-miterlimit:4;stroke-dasharray:none;stroke-opacity:0.976923;paint-order:markers stroke fill"
       id="coalincontainer" />
    <rect
       y="16.102989"
       x="120.27129"
       height="1.8708867"
       width="6.8821902"
       id="Containersticker"
       style="opacity:0.690096;fill:#ffffff;fill-opacity:1;stroke:#000000;stroke-width:0.3;stroke-linejoin:round;stroke-miterlimit:4;stroke-dasharray:none;stroke-opacity:0.976923;paint-order:markers stroke fill" />
    <text
       id="Containerlabel"
       y="17.576326"
       x="122.05243"
       style="font-style:normal;font-weight:normal;font-size:1.41111px;line-height:1.25;font-family:sans-serif;fill:#000000;fill-opacity:1;stroke:none;stroke-width:0.264583"
       xml:space="preserve"><tspan
         style="font-size:1.41111px;stroke-width:0.264583"
         y="17.576326"
         x="122.05243"
         id="tspan874"
         sodipodi:role="line">Coal</tspan></text>
    <path
       d="m 98.468533,15.601215 a 4.5290194,1.8380519 0 0 0 -4.208065,1.158632 c -0.03431,-0.0061 -0.06927,-0.0097 -0.105186,-0.0097 h -15.09673 c -0.35844,0 -0.646993,0.307403 -0.646993,0.689258 0,0.381853 0.288553,0.689257 0.646993,0.689257 h 15.096724 c 0.03591,0 0.07083,-0.0039 0.105126,-0.0097 a 4.5290194,1.8380519 0 0 0 4.208213,1.158553 4.5290194,1.8380519 0 0 0 4.529015,-1.837994 4.5290194,1.8380519 0 0 0 -4.529015,-1.838074 4.5290194,1.8380519 0 0 1 -7.5e-5,0 z"
       style="fill:#c8b7b7;stroke:#000000;stroke-width:0.0588926;stroke-miterlimit:4;stroke-dasharray:none;stroke-opacity:0.85769236"
       id="fancyspoon" />
    <path
       d="m 100.94524,17.868204 c -1.437576,0.367032 -3.086676,0.629257 -4.404824,-0.03374 0.632998,-0.586226 1.36436,-1.256024 1.997357,-1.842252 z"
       style="fill:#333333;stroke:#000000;stroke-width:0.0339232;stroke-miterlimit:4;stroke-dasharray:none;stroke-opacity:0.85769236"
       id="blackpowder" />
    <path
       d="m 44.73828,10.061844 -0.04341,3.24528 0.100253,0.0062 v 0.02532 h 6.035808 l 0.210322,0.237195 6.488491,1.117761 a 0.69434029,0.69134235 0 0 0 0.0052,0.07131 l -6.100403,1.69447 -0.190169,0.24753 -0.08733,-0.0057 h -6.341731 l -0.04444,3.510897 0.122989,0.0083 h 6.341731 l 0.04289,-3.433382 6.344317,-1.762166 a 0.69434029,0.69134235 0 0 0 0.600995,0.345198 0.69434029,0.69134235 0 0 0 0.649058,-0.445451 l 5.472533,0.942579 -0.05013,0.130224 0.310576,-0.08527 0.08682,0.01499 -0.02791,-0.03101 6.515364,-1.788004 0.441833,0.05943 0.112655,-0.211357 0.109037,-0.28112 -0.723985,0.198438 -6.919476,-0.927592 0.03204,-0.04134 -0.111623,0.03101 -0.05323,-0.0072 -0.01395,0.02584 -5.195548,1.443323 a 0.69434029,0.69134235 0 0 0 -0.634072,-0.409794 0.69434029,0.69134235 0 0 0 -0.641821,0.427881 l -6.520015,-1.123446 0.04341,-3.223059 -0.120925,-0.0072 z m 0.119372,0.104387 h 6.125207 l -0.04134,3.067513 H 44.81683 Z m 19.184876,2.985347 6.522082,0.874365 -6.079733,1.667599 -0.09353,-0.104903 -5.430676,-0.93586 4.994011,-1.386996 z m -19.106327,3.662825 h 6.219259 l -0.04134,3.292823 h -6.218743 z"
       style="opacity:0.690096;fill:#c8b7b7;fill-opacity:1;stroke:#000000;stroke-width:0.499999;stroke-linejoin:round;stroke-miterlimit:4;stroke-dasharray:none;stroke-opacity:0.857692;paint-order:markers stroke fill"
       id="tongs" />
    <path
       sodipodi:nodetypes="ccccccccc"
       d="m 11.30373,14.609173 c 1.04e-4,2.389346 1.994093,4.597165 5.230878,5.791824 3.236765,1.194624 7.224569,1.194624 10.461333,0 2.342205,-0.864438 4.069746,-2.275158 4.820222,-3.936218 l 1.99104,-1.868238 -1.580384,0.01263 c 0.0025,-0.05817 -8.5e-5,0.05819 0,0 H 21.765063 Z"
       style="opacity:0.690096;fill:#f2f2f2;fill-opacity:1;stroke:#000000;stroke-width:0.428581;stroke-linejoin:round;stroke-miterlimit:4;stroke-dasharray:none;stroke-opacity:0.857692;paint-order:markers stroke fill"
       id="crucible" />
    <path
       d="m 151.84766,16.952671 v 1.804024 h 2.67271 v -1.804024 z m -4.5067,2.378668 a 10.921559,2.2626414 0 0 0 -5.46116,1.95957 h 10.92181 10.92182 a 10.921559,2.2626414 0 0 0 -5.46117,-1.95957 10.921559,2.2626414 0 0 0 -10.9213,0 z"
       style="opacity:0.690096;fill:#f2f2f2;fill-opacity:1;stroke:#000000;stroke-width:0.37615;stroke-linejoin:round;stroke-miterlimit:4;stroke-dasharray:none;stroke-opacity:0.857692;paint-order:markers stroke fill"
       id="cruciblelid" />
  </g>
</svg>
